<svg
  xmlns="http://www.w3.org/2000/svg"
  width="256"
  height="256"
  viewBox="0 0 24 24"
  fill="none"
  stroke-linecap="round"
  stroke-linejoin="round"
>
  <!-- Background -->
  <!-- NOTE: be careful when you edit this. icons.sh has a hack for generating
       maskable icons.-->
  <rect x="1" y="1" width="22" height="22" rx="4" fill="#0F172A" />
  <!-- RSS arcs -->
  <g transform="translate(2, 0)" stroke="#E56D25" stroke-width="2.25">
    <path d="M2 12a9 9 0 0 1 8 8" />
    <path d="M2 16a5 5 0 0 1 4 4" />
    <circle cx="2" cy="20" r="1.4" stroke="none" fill="#E56D25" />
  </g>
  <!-- Plane -->
  <g stroke="#E5E7EB" transform="scale(0.6) translate(13, 3)" stroke-width="2">
    <path
      d="M17.8 19.2 16 11l3.5-3.5C21 6 21.5 4 21 3c-1-.5-3 0-4.5 1.5L13 8 4.8 6.2c-.5-.1-.9.1-1.1.5l-.3.5c-.2.5-.1 1 .3 1.3L9 12l-2 3H4l-1 1 3 2 2 3 1-1v-3l3-2 3.5 5.3c.3.4.8.5 1.3.3l.5-.2c.4-.3.6-.7.5-1.2z"
    />
  </g>
</svg>
